<svg version="1.1" id="Layer_1" xmlns="http://www.w3.org/2000/svg" xmlns:xlink="http://www.w3.org/1999/xlink" x="0px" y="0px"
	 width="100%" viewBox="0 0 500 500" enable-background="new 0 0 500 500" xml:space="preserve">
<path fill="#EEE9E6" opacity="1.000000" stroke="none" 
	d="
M284.000000,501.000000 
	C262.645782,501.000000 241.291550,501.000000 219.778168,500.641968 
	C218.780548,499.853516 217.982422,499.176880 217.097214,499.031860 
	C210.236008,497.907928 203.252930,497.334930 196.503937,495.753448 
	C171.536118,489.902771 147.680893,481.066620 125.564255,467.919800 
	C102.052574,453.943726 80.815910,437.265259 62.807766,416.457886 
	C46.978397,398.167999 33.843437,378.310974 23.674309,356.361053 
	C13.398609,334.181122 6.517484,311.070374 2.928032,286.925812 
	C2.820766,286.204285 1.666251,285.638428 1.000002,285.000000 
	C1.000000,262.979095 1.000000,240.958206 1.353092,218.776855 
	C2.807413,213.803116 4.175645,209.033112 4.964096,204.169144 
	C8.564179,181.960129 15.775473,160.855759 25.824791,140.893402 
	C32.226391,128.177017 40.167267,116.177757 48.058361,104.281761 
	C61.853161,83.485786 79.644791,66.298012 99.418991,51.353680 
	C114.135345,40.231823 129.839417,30.467545 146.851044,22.977608 
	C166.926727,14.138616 187.535278,7.203242 209.299347,3.905268 
	C211.300369,3.602047 213.104462,1.999310 215.000000,1.000001 
	C238.687561,1.000000 262.375122,1.000000 286.226227,1.341229 
	C287.216797,2.121261 287.996857,2.767583 288.878052,2.966875 
	C297.980164,5.025390 307.132904,6.868804 316.205597,9.046853 
	C337.320435,14.115812 357.180359,22.701799 375.752563,33.570045 
	C398.978027,47.161350 420.148285,63.612492 437.920776,84.232101 
	C449.501617,97.668137 460.422974,111.538765 468.919434,127.057968 
	C484.008453,154.618668 495.095001,183.663467 499.070007,215.096497 
	C499.159119,215.801102 500.332428,216.368561 501.000000,217.000000 
	C501.000000,239.687561 501.000000,262.375122 500.653534,285.212311 
	C499.537140,288.267090 498.557343,291.134766 498.030212,294.083313 
	C493.535156,319.226776 485.460510,343.108368 473.692566,365.814392 
	C459.301117,393.582367 440.704010,417.908020 417.102814,438.551361 
	C403.370911,450.562317 388.668762,461.094116 372.827606,469.951385 
	C345.748627,485.092102 316.870026,495.159912 285.967010,499.073883 
	C285.241669,499.165741 284.652618,500.333862 284.000000,501.000000 
M414.962280,384.402679 
	C416.959015,379.216492 420.015137,374.167023 420.706207,368.812317 
	C421.765747,360.602966 421.239288,352.183807 421.301422,343.853088 
	C421.332123,339.739288 418.743378,337.019012 414.653168,337.015717 
	C373.831116,336.982727 333.008728,336.936157 292.187775,337.154877 
	C289.567413,337.168884 286.342621,338.740143 284.473419,340.642609 
	C280.649445,344.534637 277.710358,349.281189 274.076813,353.383484 
	C272.855988,354.761810 270.648773,355.995575 268.867584,356.030548 
	C257.041626,356.262573 245.206223,356.277466 233.381134,356.024536 
	C231.452515,355.983276 229.057266,354.711182 227.747421,353.235809 
	C224.220642,349.263458 221.458282,344.591827 217.796600,340.768524 
	C215.968430,338.859680 212.852112,337.167480 210.293396,337.130981 
	C181.309601,336.717285 152.320969,336.641968 123.333595,336.480774 
	C120.367142,336.464264 117.400528,336.478546 114.210854,336.478546 
	C114.122353,334.861938 113.987602,333.559967 113.988922,332.258118 
	C114.047638,274.438507 114.112335,216.618866 114.195709,158.799286 
	C114.205353,152.115707 117.123268,149.082397 123.989044,149.034744 
	C156.143173,148.811661 188.297974,148.688797 220.452545,148.531967 
	C222.244934,148.523224 224.037384,148.530838 226.066620,148.530838 
	C226.066620,143.524246 226.066620,138.955963 226.066620,134.158234 
	C217.772507,134.158234 209.782150,134.107086 201.792648,134.167557 
	C174.974854,134.370483 148.152557,134.384262 121.342056,134.949066 
	C109.999138,135.188049 101.337830,144.779999 100.989281,156.185745 
	C100.775536,163.180161 100.590698,170.178345 100.571419,177.175339 
	C100.430893,228.160645 100.335564,279.146088 100.226723,330.131500 
	C100.222542,332.091858 100.226189,334.052246 100.226189,336.164307 
	C95.333405,336.461334 90.879158,336.644623 86.442238,337.028290 
	C82.801636,337.343079 80.718422,339.144989 80.791435,343.155365 
	C80.946075,351.648499 81.183388,360.154388 80.891792,368.638031 
	C80.417374,382.440277 97.315628,395.806854 108.485855,395.756561 
	C202.295471,395.334442 296.108124,395.401459 389.918823,395.671783 
	C400.151855,395.701263 407.949677,392.299133 414.962280,384.402679 
M197.712585,191.282562 
	C195.496368,205.242340 193.072845,219.173538 191.143188,233.172821 
	C190.020889,241.314728 193.626770,244.825592 201.217575,243.734848 
	C215.699097,241.653961 230.188156,239.603088 244.616684,237.195770 
	C247.296249,236.748688 250.201370,235.194504 252.162613,233.287567 
	C268.758362,217.151566 285.234100,200.890015 301.600800,184.521103 
	C325.619843,160.498749 349.622162,136.457855 373.421509,112.218597 
	C383.778870,101.669815 383.851868,92.474823 373.954681,81.577621 
	C367.694733,74.685135 361.017395,68.154945 354.299835,61.698887 
	C344.424988,52.208477 333.671875,52.118256 323.902740,61.768253 
	C283.033417,102.139229 242.270020,142.617630 201.588760,183.177963 
	C199.752930,185.008347 199.093704,188.018845 197.712585,191.282562 
M372.065704,242.499908 
	C372.014252,219.005966 371.981598,195.511948 371.899292,172.018112 
	C371.875916,165.343124 370.760254,163.660706 364.390503,163.436646 
	C353.781189,163.063431 343.149231,163.334885 332.354980,163.334885 
	C332.354980,167.743057 332.354980,172.277863 332.354980,177.509247 
	C340.925323,177.509247 349.178558,177.509247 357.621582,177.509247 
	C357.621582,221.429382 357.621582,264.648956 357.621582,307.723206 
	C286.018311,307.723206 214.770950,307.723206 143.468872,307.723206 
	C143.468872,264.045532 143.468872,220.658707 143.468872,176.854553 
	C161.690765,176.854553 179.608612,176.854553 197.589264,176.854553 
	C197.589264,172.021240 197.589264,167.611938 197.589264,162.830078 
	C195.516205,162.830078 193.713303,162.824554 191.910446,162.830948 
	C176.081940,162.886993 160.253235,163.021103 144.424988,162.980301 
	C129.970093,162.943024 129.055466,163.626862 129.031097,178.028366 
	C128.954437,223.350204 128.975784,268.672211 128.978531,313.994141 
	C128.978867,319.696259 131.350510,321.995911 137.106522,321.996368 
	C212.756088,322.002411 288.405640,322.003998 364.055206,322.001801 
	C370.107147,322.001617 371.951782,320.129791 371.962494,313.983765 
	C372.003448,290.489166 372.033844,266.994537 372.065704,242.499908 
M386.638947,164.953705 
	C386.638947,217.830429 386.638947,270.707153 386.638947,323.609314 
	C392.534058,323.609314 397.137054,323.609314 402.201172,323.609314 
	C402.201172,321.753967 402.203186,320.132965 402.200897,318.511963 
	C402.137909,273.883240 402.120544,229.254349 401.976013,184.625885 
	C401.943176,174.477631 401.774048,164.310806 401.110168,154.189102 
	C400.488495,144.711517 393.141815,136.464844 383.604919,135.072525 
	C375.970459,133.957947 368.134308,134.224640 360.182495,133.869125 
	C360.182495,139.142731 360.182495,143.580612 360.182495,148.526596 
	C363.780731,148.526596 367.241730,148.525757 370.702698,148.526749 
	C385.031616,148.530792 386.199097,149.669128 386.638947,164.953705 
z"/>
<path fill="none" opacity="1.000000" stroke="none" 
	d="
M1.000002,285.468658 
	C1.666251,285.638428 2.820766,286.204285 2.928032,286.925812 
	C6.517484,311.070374 13.398609,334.181122 23.674309,356.361053 
	C33.843437,378.310974 46.978397,398.167999 62.807766,416.457886 
	C80.815910,437.265259 102.052574,453.943726 125.564255,467.919800 
	C147.680893,481.066620 171.536118,489.902771 196.503937,495.753448 
	C203.252930,497.334930 210.236008,497.907928 217.097214,499.031860 
	C217.982422,499.176880 218.780548,499.853516 219.309509,500.641968 
	C146.406647,501.000000 73.813278,501.000000 1.000000,501.000000 
	C1.000000,429.312592 1.000000,357.624939 1.000002,285.468658 
z"/>
<path fill="none" opacity="1.000000" stroke="none" 
	d="
M501.000000,216.531342 
	C500.332428,216.368561 499.159119,215.801102 499.070007,215.096497 
	C495.095001,183.663467 484.008453,154.618668 468.919434,127.057968 
	C460.422974,111.538765 449.501617,97.668137 437.920776,84.232101 
	C420.148285,63.612492 398.978027,47.161350 375.752563,33.570045 
	C357.180359,22.701799 337.320435,14.115812 316.205597,9.046853 
	C307.132904,6.868804 297.980164,5.025390 288.878052,2.966875 
	C287.996857,2.767583 287.216797,2.121261 286.694885,1.341229 
	C358.260712,1.000000 429.521393,1.000000 501.000000,1.000000 
	C501.000000,72.687416 501.000000,144.375046 501.000000,216.531342 
z"/>
<path fill="none" opacity="1.000000" stroke="none" 
	d="
M284.468658,501.000000 
	C284.652618,500.333862 285.241669,499.165741 285.967010,499.073883 
	C316.870026,495.159912 345.748627,485.092102 372.827606,469.951385 
	C388.668762,461.094116 403.370911,450.562317 417.102814,438.551361 
	C440.704010,417.908020 459.301117,393.582367 473.692566,365.814392 
	C485.460510,343.108368 493.535156,319.226776 498.030212,294.083313 
	C498.557343,291.134766 499.537140,288.267090 500.653534,285.680969 
	C501.000000,357.594025 501.000000,429.188080 501.000000,501.000000 
	C428.979248,501.000000 356.958282,501.000000 284.468658,501.000000 
z"/>
<path fill="none" opacity="1.000000" stroke="none" 
	d="
M214.531342,1.000001 
	C213.104462,1.999310 211.300369,3.602047 209.299347,3.905268 
	C187.535278,7.203242 166.926727,14.138616 146.851044,22.977608 
	C129.839417,30.467545 114.135345,40.231823 99.418991,51.353680 
	C79.644791,66.298012 61.853161,83.485786 48.058361,104.281761 
	C40.167267,116.177757 32.226391,128.177017 25.824791,140.893402 
	C15.775473,160.855759 8.564179,181.960129 4.964096,204.169144 
	C4.175645,209.033112 2.807413,213.803116 1.353092,218.308197 
	C1.000000,145.740143 1.000000,73.480278 1.000000,1.000000 
	C72.020744,1.000000 143.041718,1.000000 214.531342,1.000001 
z"/>
<path fill="#050404" opacity="1.000000" stroke="none" 
	d="
M414.726501,384.672058 
	C407.949677,392.299133 400.151855,395.701263 389.918823,395.671783 
	C296.108124,395.401459 202.295471,395.334442 108.485855,395.756561 
	C97.315628,395.806854 80.417374,382.440277 80.891792,368.638031 
	C81.183388,360.154388 80.946075,351.648499 80.791435,343.155365 
	C80.718422,339.144989 82.801636,337.343079 86.442238,337.028290 
	C90.879158,336.644623 95.333405,336.461334 100.226189,336.164307 
	C100.226189,334.052246 100.222542,332.091858 100.226723,330.131500 
	C100.335564,279.146088 100.430893,228.160645 100.571419,177.175339 
	C100.590698,170.178345 100.775536,163.180161 100.989281,156.185745 
	C101.337830,144.779999 109.999138,135.188049 121.342056,134.949066 
	C148.152557,134.384262 174.974854,134.370483 201.792648,134.167557 
	C209.782150,134.107086 217.772507,134.158234 226.066620,134.158234 
	C226.066620,138.955963 226.066620,143.524246 226.066620,148.530838 
	C224.037384,148.530838 222.244934,148.523224 220.452545,148.531967 
	C188.297974,148.688797 156.143173,148.811661 123.989044,149.034744 
	C117.123268,149.082397 114.205353,152.115707 114.195709,158.799286 
	C114.112335,216.618866 114.047638,274.438507 113.988922,332.258118 
	C113.987602,333.559967 114.122353,334.861938 114.210854,336.478546 
	C117.400528,336.478546 120.367142,336.464264 123.333595,336.480774 
	C152.320969,336.641968 181.309601,336.717285 210.293396,337.130981 
	C212.852112,337.167480 215.968430,338.859680 217.796600,340.768524 
	C221.458282,344.591827 224.220642,349.263458 227.747421,353.235809 
	C229.057266,354.711182 231.452515,355.983276 233.381134,356.024536 
	C245.206223,356.277466 257.041626,356.262573 268.867584,356.030548 
	C270.648773,355.995575 272.855988,354.761810 274.076813,353.383484 
	C277.710358,349.281189 280.649445,344.534637 284.473419,340.642609 
	C286.342621,338.740143 289.567413,337.168884 292.187775,337.154877 
	C333.008728,336.936157 373.831116,336.982727 414.653168,337.015717 
	C418.743378,337.019012 421.332123,339.739288 421.301422,343.853088 
	C421.239288,352.183807 421.765747,360.602966 420.706207,368.812317 
	C420.015137,374.167023 416.959015,379.216492 414.726501,384.672058 
M405.254700,351.176941 
	C369.607605,351.119293 333.960236,351.111176 298.313873,350.920074 
	C295.093689,350.902832 293.106720,351.852570 291.316284,354.436340 
	C288.573181,358.394958 285.406342,362.056946 282.536469,365.931641 
	C280.299652,368.951599 277.490234,370.417877 273.672363,370.425537 
	C260.685333,370.451630 247.684540,370.306122 234.716553,370.865204 
	C225.485794,371.263123 218.814301,368.100525 214.453445,359.909332 
	C213.371155,357.876404 211.542297,356.251282 210.360062,354.258667 
	C208.826233,351.673462 206.809341,350.922821 203.820160,350.933533 
	C172.337585,351.046387 140.854446,350.990784 109.371513,351.019928 
	C105.545120,351.023468 101.718918,351.347015 97.892662,351.346375 
	C94.847771,351.345886 93.768387,352.712036 94.076439,355.660736 
	C94.456711,359.300720 94.585556,362.966278 94.917816,366.612152 
	C95.727654,375.498535 102.922333,381.991394 111.916405,381.991852 
	C177.380981,381.995270 242.845779,382.092621 308.310059,381.949493 
	C336.415314,381.888062 364.521515,381.422150 392.621307,380.847382 
	C395.641144,380.785614 399.163422,379.430084 401.511414,377.518555 
	C407.186157,372.898743 409.346069,358.921844 405.254700,351.176941 
z"/>
<path fill="#050404" opacity="1.000000" stroke="none" 
	d="
M197.799530,190.881104 
	C199.093704,188.018845 199.752930,185.008347 201.588760,183.177963 
	C242.270020,142.617630 283.033417,102.139229 323.902740,61.768253 
	C333.671875,52.118256 344.424988,52.208477 354.299835,61.698887 
	C361.017395,68.154945 367.694733,74.685135 373.954681,81.577621 
	C383.851868,92.474823 383.778870,101.669815 373.421509,112.218597 
	C349.622162,136.457855 325.619843,160.498749 301.600800,184.521103 
	C285.234100,200.890015 268.758362,217.151566 252.162613,233.287567 
	C250.201370,235.194504 247.296249,236.748688 244.616684,237.195770 
	C230.188156,239.603088 215.699097,241.653961 201.217575,243.734848 
	C193.626770,244.825592 190.020889,241.314728 191.143188,233.172821 
	C193.072845,219.173538 195.496368,205.242340 197.799530,190.881104 
M319.997253,146.497253 
	C328.317017,138.224258 336.636749,129.951248 345.110901,121.524696 
	C341.342133,117.964294 338.017059,114.823036 333.346436,110.410660 
	C300.761078,143.767334 268.563965,176.726562 236.868011,209.172760 
	C232.929367,205.217072 229.698990,201.972717 226.918900,199.180588 
	C258.984436,166.426636 291.325806,133.390945 323.854187,100.164246 
	C321.000031,97.472801 317.781494,94.437729 314.517151,91.359467 
	C313.701691,92.004051 313.141296,92.363632 312.680573,92.823151 
	C279.777771,125.641365 246.879913,158.464493 214.005539,191.311142 
	C213.214432,192.101578 212.257858,193.098267 212.111633,194.105225 
	C210.495316,205.236893 209.024277,216.389664 207.394730,228.416321 
	C217.909576,226.954361 227.552704,225.345871 237.259979,224.385895 
	C241.593521,223.957321 244.544998,222.153534 247.494232,219.179047 
	C271.422302,195.046127 295.480743,171.042496 319.997253,146.497253 
M354.757996,82.733978 
	C351.042053,79.178009 347.344788,75.602280 343.604340,72.072289 
	C340.585907,69.223694 337.185547,68.376038 333.802429,71.192299 
	C330.515991,73.928070 327.541809,77.038918 325.464417,79.006027 
	C335.447998,89.661217 345.146820,100.012474 355.030029,110.560524 
	C358.204803,107.317719 361.070251,104.575928 363.717224,101.637329 
	C366.621490,98.413048 366.519226,95.123642 363.447174,91.944565 
	C360.679352,89.080284 357.987366,86.142693 354.757996,82.733978 
z"/>
<path fill="#010101" opacity="1.000000" stroke="none" 
	d="
M372.066956,242.999924 
	C372.033844,266.994537 372.003448,290.489166 371.962494,313.983765 
	C371.951782,320.129791 370.107147,322.001617 364.055206,322.001801 
	C288.405640,322.003998 212.756088,322.002411 137.106522,321.996368 
	C131.350510,321.995911 128.978867,319.696259 128.978531,313.994141 
	C128.975784,268.672211 128.954437,223.350204 129.031097,178.028366 
	C129.055466,163.626862 129.970093,162.943024 144.424988,162.980301 
	C160.253235,163.021103 176.081940,162.886993 191.910446,162.830948 
	C193.713303,162.824554 195.516205,162.830078 197.589264,162.830078 
	C197.589264,167.611938 197.589264,172.021240 197.589264,176.854553 
	C179.608612,176.854553 161.690765,176.854553 143.468872,176.854553 
	C143.468872,220.658707 143.468872,264.045532 143.468872,307.723206 
	C214.770950,307.723206 286.018311,307.723206 357.621582,307.723206 
	C357.621582,264.648956 357.621582,221.429382 357.621582,177.509247 
	C349.178558,177.509247 340.925323,177.509247 332.354980,177.509247 
	C332.354980,172.277863 332.354980,167.743057 332.354980,163.334885 
	C343.149231,163.334885 353.781189,163.063431 364.390503,163.436646 
	C370.760254,163.660706 371.875916,165.343124 371.899292,172.018112 
	C371.981598,195.511948 372.014252,219.005966 372.066956,242.999924 
z"/>
<path fill="#040303" opacity="1.000000" stroke="none" 
	d="
M386.622253,164.491638 
	C386.199097,149.669128 385.031616,148.530792 370.702698,148.526749 
	C367.241730,148.525757 363.780731,148.526596 360.182495,148.526596 
	C360.182495,143.580612 360.182495,139.142731 360.182495,133.869125 
	C368.134308,134.224640 375.970459,133.957947 383.604919,135.072525 
	C393.141815,136.464844 400.488495,144.711517 401.110168,154.189102 
	C401.774048,164.310806 401.943176,174.477631 401.976013,184.625885 
	C402.120544,229.254349 402.137909,273.883240 402.200897,318.511963 
	C402.203186,320.132965 402.201172,321.753967 402.201172,323.609314 
	C397.137054,323.609314 392.534058,323.609314 386.638947,323.609314 
	C386.638947,270.707153 386.638947,217.830429 386.622253,164.491638 
z"/>
<path fill="#EEE8E6" opacity="1.000000" stroke="none" 
	d="
M405.733704,351.216248 
	C409.346069,358.921844 407.186157,372.898743 401.511414,377.518555 
	C399.163422,379.430084 395.641144,380.785614 392.621307,380.847382 
	C364.521515,381.422150 336.415314,381.888062 308.310059,381.949493 
	C242.845779,382.092621 177.380981,381.995270 111.916405,381.991852 
	C102.922333,381.991394 95.727654,375.498535 94.917816,366.612152 
	C94.585556,362.966278 94.456711,359.300720 94.076439,355.660736 
	C93.768387,352.712036 94.847771,351.345886 97.892662,351.346375 
	C101.718918,351.347015 105.545120,351.023468 109.371513,351.019928 
	C140.854446,350.990784 172.337585,351.046387 203.820160,350.933533 
	C206.809341,350.922821 208.826233,351.673462 210.360062,354.258667 
	C211.542297,356.251282 213.371155,357.876404 214.453445,359.909332 
	C218.814301,368.100525 225.485794,371.263123 234.716553,370.865204 
	C247.684540,370.306122 260.685333,370.451630 273.672363,370.425537 
	C277.490234,370.417877 280.299652,368.951599 282.536469,365.931641 
	C285.406342,362.056946 288.573181,358.394958 291.316284,354.436340 
	C293.106720,351.852570 295.093689,350.902832 298.313873,350.920074 
	C333.960236,351.111176 369.607605,351.119293 405.733704,351.216248 
z"/>
<path fill="#ECE7E5" opacity="1.000000" stroke="none" 
	d="
M319.748352,146.748352 
	C295.480743,171.042496 271.422302,195.046127 247.494232,219.179047 
	C244.544998,222.153534 241.593521,223.957321 237.259979,224.385895 
	C227.552704,225.345871 217.909576,226.954361 207.394730,228.416321 
	C209.024277,216.389664 210.495316,205.236893 212.111633,194.105225 
	C212.257858,193.098267 213.214432,192.101578 214.005539,191.311142 
	C246.879913,158.464493 279.777771,125.641365 312.680573,92.823151 
	C313.141296,92.363632 313.701691,92.004051 314.517151,91.359467 
	C317.781494,94.437729 321.000031,97.472801 323.854187,100.164246 
	C291.325806,133.390945 258.984436,166.426636 226.918900,199.180588 
	C229.698990,201.972717 232.929367,205.217072 236.868011,209.172760 
	C268.563965,176.726562 300.761078,143.767334 333.346436,110.410660 
	C338.017059,114.823036 341.342133,117.964294 345.110901,121.524696 
	C336.636749,129.951248 328.317017,138.224258 319.748352,146.748352 
z"/>
<path fill="#EBE5E3" opacity="1.000000" stroke="none" 
	d="
M355.009949,82.985703 
	C357.987366,86.142693 360.679352,89.080284 363.447174,91.944565 
	C366.519226,95.123642 366.621490,98.413048 363.717224,101.637329 
	C361.070251,104.575928 358.204803,107.317719 355.030029,110.560524 
	C345.146820,100.012474 335.447998,89.661217 325.464417,79.006027 
	C327.541809,77.038918 330.515991,73.928070 333.802429,71.192299 
	C337.185547,68.376038 340.585907,69.223694 343.604340,72.072289 
	C347.344788,75.602280 351.042053,79.178009 355.009949,82.985703 
z"/>
</svg>