<?xml version="1.0" standalone="no"?>
<!DOCTYPE svg PUBLIC "-//W3C//DTD SVG 20010904//EN"
 "http://www.w3.org/TR/2001/REC-SVG-20010904/DTD/svg10.dtd">
<svg version="1.0" xmlns="http://www.w3.org/2000/svg"
 width="512.000000pt" height="512.000000pt" viewBox="0 0 512.000000 512.000000"
 preserveAspectRatio="xMidYMid meet">

<g transform="translate(0.000000,512.000000) scale(0.100000,-0.100000)"
fill="#000000" stroke="none">
<path d="M3722 5035 c-44 -21 -204 -174 -985 -950 -513 -509 -938 -938 -944
-953 -13 -29 -113 -674 -113 -730 0 -47 26 -91 63 -107 29 -12 72 -7 409 44
l377 57 558 551 c307 303 734 728 949 945 434 436 429 430 429 558 -1 114 -28
157 -238 368 -217 218 -254 242 -376 242 -60 0 -87 -6 -129 -25z m331 -352
c93 -93 175 -181 183 -196 24 -46 9 -82 -68 -163 -39 -41 -76 -74 -82 -74 -6
0 -110 99 -231 220 l-220 221 81 79 c76 75 84 80 125 80 42 0 45 -3 212 -167z
m-485 -225 l73 -73 -726 -720 -726 -720 75 -74 75 -75 719 717 c395 394 723
717 728 717 5 0 42 -33 82 -73 l72 -72 -748 -748 -747 -747 -257 -37 c-142
-20 -260 -34 -263 -31 -3 2 11 119 31 259 l36 254 746 748 c411 411 749 747
752 747 2 0 38 -33 78 -72z"/>
<path d="M586 3880 c-99 -39 -168 -107 -212 -210 -18 -43 -19 -92 -22 -1392
l-2 -1348 -101 0 c-109 0 -160 -14 -179 -50 -8 -15 -10 -92 -8 -253 3 -212 5
-237 26 -287 44 -111 141 -207 252 -253 l55 -22 2165 0 2165 0 55 22 c111 46
208 142 252 253 21 50 23 75 26 290 l3 235 -31 30 -31 30 -935 3 c-833 2 -939
1 -968 -13 -23 -11 -65 -58 -129 -146 l-97 -129 -310 0 -310 0 -100 134 c-74
100 -108 137 -131 145 -22 8 -253 11 -751 11 l-718 0 2 1333 3 1332 23 33 c47
65 3 62 852 62 l770 0 0 105 0 105 -782 0 c-746 -1 -785 -2 -832 -20z m1438
-3290 c53 -71 106 -136 118 -145 33 -22 784 -23 828 0 16 8 72 72 125 145 l97
130 831 -2 832 -3 -1 -132 c-2 -151 -17 -197 -81 -254 -80 -70 119 -64 -2213
-64 l-2105 0 -47 23 c-53 26 -103 79 -125 130 -15 36 -30 258 -20 286 6 15 84
16 836 16 l829 0 96 -130z"/>
<path d="M4160 3795 l0 -105 148 0 c165 0 195 -9 229 -72 17 -31 18 -101 21
-1265 l2 -1233 110 0 110 0 0 1228 c0 1352 3 1295 -62 1394 -38 60 -93 104
-166 134 -52 21 -72 24 -224 24 l-168 0 0 -105z"/>
<path d="M855 3472 c-31 -10 -50 -25 -68 -52 -16 -23 -17 -108 -17 -1117 l0
-1093 29 -32 29 -33 1726 0 1726 0 27 28 28 27 3 1094 c1 688 -1 1103 -7 1119
-6 14 -22 34 -38 44 -24 16 -57 18 -285 21 l-258 3 0 -105 0 -106 188 -2 187
-3 3 -957 2 -958 -1575 0 -1575 0 0 960 0 960 400 0 400 0 0 105 0 105 -452
-1 c-249 -1 -462 -4 -473 -7z"/>
</g>
</svg>
