<svg version="1.1" id="Layer_1" xmlns="http://www.w3.org/2000/svg" xmlns:xlink="http://www.w3.org/1999/xlink" x="0px" y="0px"
	 width="100%" viewBox="0 0 1920 707" enable-background="new 0 0 1920 707" xml:space="preserve">
<path fill="none" opacity="1.000000" stroke="none" 
	d="
M196.000000,1.000000 
	C760.368225,1.000000 1324.736450,1.000000 1889.556885,1.277798 
	C1890.019653,1.740512 1890.030396,1.925429 1890.059570,2.498309 
	C1880.411621,38.111446 1870.741211,73.335564 1861.079224,108.561966 
	C1812.236572,286.634979 1763.396606,464.708740 1714.553589,642.781677 
	C1709.289307,661.974060 1704.011719,681.162781 1698.689209,700.539551 
	C1706.990845,703.087158 1714.995483,705.543579 1723.000000,708.000000 
	C1159.631714,708.000000 596.263489,708.000000 32.369972,707.605103 
	C31.963667,706.555603 32.033195,705.887451 32.208672,705.248291 
	C49.485523,642.320190 66.782249,579.397583 84.052467,516.467712 
	C126.850677,360.517822 169.636444,204.564545 212.429092,48.613152 
	C216.015305,35.543766 219.615768,22.478291 223.258575,9.232923 
	C221.197495,8.662579 219.605850,8.261307 218.038193,7.781654 
	C210.688522,5.532912 203.345428,3.262605 196.000000,1.000000 
M1538.499634,469.457520 
	C1563.827271,469.318207 1589.178101,469.803223 1614.476196,468.866516 
	C1640.520386,467.902161 1659.831177,450.785431 1662.950562,425.049805 
	C1664.880859,409.122589 1664.535400,392.752075 1663.521240,376.687286 
	C1662.675781,363.294495 1655.509399,352.474792 1643.562988,345.615631 
	C1639.733765,343.417023 1635.366821,342.154694 1630.989014,340.358612 
	C1631.988159,339.883667 1632.708618,339.484009 1633.469360,339.188263 
	C1648.914673,333.183807 1659.031982,322.156860 1660.188965,305.609619 
	C1661.286011,289.919250 1661.166016,273.922272 1659.373779,258.313568 
	C1657.573975,242.637466 1648.498779,230.174881 1633.890381,223.591919 
	C1625.901855,219.992065 1616.740234,217.529282 1608.027710,217.273682 
	C1580.220337,216.457901 1552.375610,216.913727 1524.545288,216.881714 
	C1520.212402,216.876724 1515.875610,217.004715 1511.547729,216.860168 
	C1507.277344,216.717560 1505.488281,218.902985 1505.319458,222.864990 
	C1505.262695,224.195877 1505.293701,225.530746 1505.293579,226.863800 
	C1505.292114,304.189880 1505.291382,381.515961 1505.292725,458.842041 
	C1505.292725,460.174957 1505.359985,461.508820 1505.327515,462.840576 
	C1505.215942,467.417542 1507.397217,469.525635 1512.002197,469.476440 
	C1520.500366,469.385620 1529.000366,469.454895 1538.499634,469.457520 
M1295.487305,216.879440 
	C1275.161499,216.879318 1254.835571,216.878830 1234.509766,216.879227 
	C1225.346313,216.879410 1216.180298,217.011398 1207.020508,216.828934 
	C1202.271118,216.734329 1200.339844,218.958099 1200.334106,223.411133 
	C1200.332886,224.410767 1200.321655,225.410385 1200.321655,226.410019 
	C1200.322632,304.382507 1200.324219,382.355011 1200.327026,460.327484 
	C1200.327026,461.326996 1200.338623,462.326508 1200.349731,463.325989 
	C1200.394897,467.376526 1202.349976,469.481232 1206.494873,469.454102 
	C1211.159546,469.423553 1215.824585,469.479401 1220.489258,469.451721 
	C1228.844727,469.402130 1229.694946,468.571259 1229.698242,460.357574 
	C1229.709595,432.034241 1229.784912,403.710449 1229.622681,375.388031 
	C1229.595459,370.642181 1231.110229,368.916626 1235.933716,368.991333 
	C1250.591797,369.218292 1265.259033,369.247925 1279.914673,368.953857 
	C1283.756714,368.876770 1285.363403,370.270813 1286.849121,373.521759 
	C1300.171509,402.672394 1313.731445,431.714478 1327.025513,460.877777 
	C1329.702759,466.750519 1333.655640,469.737183 1340.133667,469.492340 
	C1344.126587,469.341431 1348.129761,469.463806 1352.128296,469.456604 
	C1362.689087,469.437622 1363.362915,468.381470 1358.797485,458.825623 
	C1347.700928,435.599457 1336.580444,412.384735 1325.483765,389.158539 
	C1321.920654,381.700378 1318.402344,374.220825 1315.186279,367.432404 
	C1322.161377,363.709595 1329.253662,360.950104 1335.144043,356.573303 
	C1348.643188,346.542969 1354.197876,332.038910 1354.747803,315.727905 
	C1355.269531,300.251953 1355.322388,284.731171 1354.789673,269.257355 
	C1354.319946,255.607742 1349.916626,243.133698 1340.104614,233.111710 
	C1328.127319,220.878143 1313.044189,216.857239 1295.487305,216.879440 
M593.005005,310.500000 
	C593.005005,307.000885 593.005066,303.501740 593.005005,300.002625 
	C593.004456,274.672089 593.020996,249.341507 592.990601,224.010986 
	C592.983582,218.194870 591.740662,216.969757 585.993958,216.895660 
	C581.495178,216.837662 576.995056,216.877502 572.495544,216.886505 
	C564.481628,216.902527 563.881409,217.473145 563.878967,225.343842 
	C563.868958,257.673615 563.879883,290.003418 563.868347,322.333191 
	C563.866211,328.425049 563.357361,328.948578 557.347168,328.951263 
	C526.850525,328.964935 496.353882,328.963440 465.857239,328.950653 
	C459.874908,328.948151 459.288452,328.372894 459.280182,322.384918 
	C459.255280,304.386932 459.265869,286.388855 459.266113,268.390839 
	C459.266357,253.559158 459.312347,238.727325 459.254761,223.895874 
	C459.231445,217.886749 458.229553,216.964203 452.193207,216.892654 
	C447.860962,216.841293 443.527618,216.878601 439.194763,216.884766 
	C430.833923,216.896667 430.072052,217.649277 430.071808,225.955704 
	C430.069611,303.947144 430.070038,381.938568 430.071075,459.930023 
	C430.071106,461.263123 430.037964,462.598877 430.107605,463.928802 
	C430.280121,467.223267 431.762451,469.258179 435.333832,469.281738 
	C439.997437,469.312531 444.660767,469.432068 449.324219,469.431458 
	C458.942169,469.430176 459.262451,469.110962 459.264404,459.718140 
	C459.271240,427.055054 459.259735,394.391998 459.269165,361.728912 
	C459.271118,354.994781 459.572968,354.689972 466.331299,354.687866 
	C495.994690,354.678589 525.658081,354.687286 555.321472,354.693329 
	C563.877686,354.695099 563.874512,354.701019 563.874695,363.208893 
	C563.875427,395.871979 563.870850,428.535034 563.886230,461.198120 
	C563.889709,468.613861 564.692688,469.381531 572.275879,469.433960 
	C576.441833,469.462769 580.608398,469.469238 584.774353,469.438354 
	C592.146973,469.383667 593.000854,468.505127 593.001587,460.983582 
	C593.006409,411.155731 593.004639,361.327850 593.005005,310.500000 
M1040.908447,469.357483 
	C1059.904663,469.258606 1078.923462,469.706757 1097.891357,468.922455 
	C1121.605957,467.941895 1140.726562,453.278259 1145.373413,431.061707 
	C1148.095825,418.046387 1147.350708,404.285950 1147.902588,390.849915 
	C1148.047729,387.316223 1145.230591,386.146667 1142.074097,386.113464 
	C1136.741455,386.057312 1131.407227,386.037445 1126.074829,386.098846 
	C1120.332520,386.164948 1119.070190,387.504272 1118.909058,393.156036 
	C1118.667114,401.642181 1118.988403,410.205078 1117.940552,418.594269 
	C1116.094116,433.378052 1106.989258,442.387390 1092.259521,443.084534 
	C1075.312378,443.886597 1058.264160,444.071503 1041.329102,443.191620 
	C1023.950439,442.288666 1014.283997,431.732086 1014.056702,414.328278 
	C1013.645325,382.835297 1013.751099,351.335022 1013.731262,319.837738 
	C1013.721008,303.507172 1013.610840,287.167938 1014.084167,270.848267 
	C1014.536804,255.240982 1024.671265,243.779724 1039.427490,243.173309 
	C1057.219360,242.442169 1075.081665,242.520935 1092.880249,243.166504 
	C1105.665649,243.630249 1114.969727,251.742142 1117.125366,264.396729 
	C1118.760376,273.995850 1118.538574,283.930634 1118.859863,293.725342 
	C1119.003662,298.110870 1120.729370,300.180817 1125.173218,300.096924 
	C1130.671143,299.993164 1136.174194,299.982788 1141.671631,300.096558 
	C1146.055420,300.187286 1148.128784,298.276855 1148.067505,293.833221 
	C1147.954956,285.668182 1148.219116,277.491882 1147.902466,269.336761 
	C1146.729248,239.123337 1125.730347,217.843018 1095.800537,217.091141 
	C1076.147705,216.597427 1056.461426,216.602936 1036.810425,217.132553 
	C1021.848511,217.535782 1008.488831,222.665573 998.109314,234.076431 
	C987.468811,245.774170 984.432495,260.083557 984.391602,275.231171 
	C984.269592,320.396545 984.291992,365.562561 984.377258,410.728119 
	C984.401184,423.370667 986.348389,435.660034 993.633362,446.426941 
	C1004.715393,462.805786 1020.991211,468.858643 1040.908447,469.357483 
M757.500061,216.879791 
	C726.168762,216.878845 694.837524,216.876663 663.506226,216.877777 
	C655.181519,216.878067 654.259583,217.755859 654.258972,225.869583 
	C654.252747,304.031525 654.252991,382.193481 654.258118,460.355408 
	C654.258606,468.547180 655.112000,469.433899 663.477234,469.443604 
	C689.975647,469.474365 716.473999,469.452698 742.972412,469.451508 
	C755.971619,469.450958 768.971375,469.521088 781.969788,469.418945 
	C787.836975,469.372864 788.932556,468.115723 789.003235,462.287292 
	C789.037598,459.454529 789.008057,456.621033 789.007751,453.787872 
	C789.006775,444.140350 788.728577,443.853363 779.304016,443.852814 
	C749.472473,443.851074 719.640747,443.800812 689.809570,443.905853 
	C685.462585,443.921143 683.524353,442.682007 683.553894,437.934082 
	C683.716309,411.770111 683.668091,385.604401 683.563538,359.439789 
	C683.547546,355.436340 684.853210,353.706055 689.063904,353.838837 
	C696.555969,354.075073 704.060913,353.905426 711.560425,353.905823 
	C730.725952,353.906830 749.891479,353.928955 769.056946,353.897308 
	C775.441956,353.886780 776.835510,352.520569 776.920105,346.433136 
	C776.966431,343.100677 776.939758,339.766937 776.923950,336.433868 
	C776.889893,329.271729 775.711914,328.083527 768.458557,328.079590 
	C742.626770,328.065582 716.795044,328.077362 690.963257,328.073120 
	C683.713501,328.071930 683.633728,327.991760 683.632507,320.928925 
	C683.628357,297.263702 683.629761,273.598450 683.629883,249.933228 
	C683.629883,242.666183 683.765686,242.522079 691.283569,242.520493 
	C720.448486,242.514374 749.613342,242.518692 778.778259,242.514389 
	C780.277344,242.514160 781.776733,242.480621 783.275513,242.443878 
	C787.135742,242.349274 789.068237,240.442581 789.011902,236.502731 
	C788.949890,232.170624 788.907043,227.834061 789.032715,223.504578 
	C789.165955,218.915848 787.215332,216.764191 782.497986,216.846695 
	C774.500916,216.986588 766.499634,216.881760 757.500061,216.879791 
M330.289124,345.500183 
	C330.290283,313.509125 330.284454,281.518066 330.298431,249.527023 
	C330.301300,242.945755 330.730438,242.556564 337.439148,242.509308 
	C338.605438,242.501099 339.771851,242.509445 340.938202,242.509354 
	C355.267548,242.508240 369.596924,242.521011 383.926239,242.500580 
	C392.800995,242.487930 393.457886,241.792557 393.469757,232.722443 
	C393.472809,230.389755 393.480225,228.057022 393.468048,225.724411 
	C393.425842,217.637787 392.689240,216.890060 384.596405,216.888947 
	C338.775787,216.882629 292.955170,216.884766 247.134567,216.886658 
	C245.968567,216.886703 244.802612,216.924225 243.636551,216.931824 
	C239.945068,216.955872 238.135162,218.917267 238.056381,222.501175 
	C237.979507,225.998520 238.021057,229.498611 238.020721,232.997498 
	C238.019913,241.637726 238.847900,242.495972 247.315506,242.502472 
	C262.811188,242.514374 278.306885,242.499283 293.802582,242.513611 
	C300.938629,242.520218 301.088867,242.682083 301.088928,249.738190 
	C301.089661,319.218903 301.087830,388.699585 301.088013,458.180298 
	C301.088013,460.013062 301.064667,461.846985 301.118774,463.678375 
	C301.223175,467.212067 302.803131,469.317719 306.601562,469.321198 
	C311.098511,469.325317 315.595398,469.428894 320.092346,469.433655 
	C330.022095,469.444122 330.294495,469.163147 330.294037,459.468842 
	C330.292206,421.812622 330.290710,384.156433 330.289124,345.500183 
M1442.046875,241.500153 
	C1442.037598,235.336060 1441.966187,229.171204 1442.041016,223.008133 
	C1442.091309,218.868423 1440.277466,216.817841 1436.054565,216.884750 
	C1431.557617,216.955994 1427.058350,216.888046 1422.560181,216.889664 
	C1413.213867,216.893036 1412.927124,217.172974 1412.927124,226.345108 
	C1412.927002,303.981232 1412.928467,381.617371 1412.930298,459.253510 
	C1412.930298,460.752869 1412.972412,462.252747 1412.945190,463.751495 
	C1412.877563,467.472107 1414.718018,469.288025 1418.405640,469.314697 
	C1423.235840,469.349640 1428.065918,469.425812 1432.896118,469.425934 
	C1441.423950,469.426117 1442.048462,468.796875 1442.048462,460.414368 
	C1442.048950,387.776276 1442.047607,315.138153 1442.046875,241.500153 
M875.500000,509.919556 
	C899.151428,509.920227 922.802856,509.919128 946.454285,509.922302 
	C957.975891,509.923828 958.346680,509.437958 958.038086,497.679016 
	C957.924194,493.339569 956.122131,491.191101 951.741333,491.190063 
	C907.104065,491.179504 862.466736,491.151947 817.829468,491.133942 
	C817.331177,491.133728 816.638977,490.997711 816.366516,491.263123 
	C814.753479,492.834564 812.805054,494.287079 811.829773,496.214844 
	C811.084595,497.687775 811.570190,499.804962 811.581299,501.635162 
	C811.625549,508.928436 812.614319,509.909210 820.035095,509.914948 
	C838.190063,509.928986 856.345032,509.919556 875.500000,509.919556 
z"/>
<path fill="none" opacity="1.000000" stroke="none" 
	d="
M25.999996,708.000000 
	C17.670595,708.000000 9.341189,708.000000 1.008838,708.000000 
	C1.005892,472.448334 1.005892,236.896683 1.005892,1.000000 
	C65.021019,1.000000 129.042664,1.000000 193.639542,1.387296 
	C193.877457,2.889063 193.514496,3.996497 193.206467,5.119004 
	C131.898041,228.528061 70.592064,451.937775 9.294447,675.349792 
	C6.987001,683.759827 4.761798,692.192444 2.461018,700.753113 
	C4.658111,701.364929 6.261319,701.764954 7.835396,702.257935 
	C13.895320,704.155823 19.945923,706.083435 25.999996,708.000000 
z"/>
<path fill="none" opacity="1.000000" stroke="none" 
	d="
M1892.000000,0.999988 
	C1901.662109,1.000000 1911.324341,1.000000 1920.989746,1.000000 
	C1920.993164,236.551559 1920.993164,472.103119 1920.993164,708.000000 
	C1856.979004,708.000000 1792.957275,708.000000 1728.470215,707.610229 
	C1791.820435,474.622620 1855.636353,242.024765 1919.488159,9.295641 
	C1917.616821,8.729242 1916.359497,8.347580 1915.101562,7.968146 
	C1907.401001,5.645122 1899.700562,3.322640 1892.000000,0.999988 
z"/>
<path fill="#020202" opacity="1.000000" stroke="none" 
	d="
M1891.750000,0.999988 
	C1899.700562,3.322640 1907.401001,5.645122 1915.101562,7.968146 
	C1916.359497,8.347580 1917.616821,8.729242 1919.488159,9.295641 
	C1855.636353,242.024765 1791.820435,474.622620 1728.002319,707.610229 
	C1726.611084,708.000000 1725.222168,708.000000 1723.416626,708.000000 
	C1714.995483,705.543579 1706.990845,703.087158 1698.689209,700.539551 
	C1704.011719,681.162781 1709.289307,661.974060 1714.553589,642.781677 
	C1763.396606,464.708740 1812.236572,286.634979 1861.079224,108.561966 
	C1870.741211,73.335564 1880.411621,38.111446 1890.292969,2.359312 
	C1890.671997,1.554911 1890.836060,1.277470 1891.000000,1.000015 
	C1891.000000,1.000000 1891.500000,1.000000 1891.750000,0.999988 
z"/>
<path fill="#020202" opacity="1.000000" stroke="none" 
	d="
M26.428459,708.000000 
	C19.945923,706.083435 13.895320,704.155823 7.835396,702.257935 
	C6.261319,701.764954 4.658111,701.364929 2.461018,700.753113 
	C4.761798,692.192444 6.987001,683.759827 9.294447,675.349792 
	C70.592064,451.937775 131.898041,228.528061 193.206467,5.119004 
	C193.514496,3.996497 193.877457,2.889063 194.107391,1.387296 
	C194.444443,1.000000 194.888901,1.000000 195.666672,1.000000 
	C203.345428,3.262605 210.688522,5.532912 218.038193,7.781654 
	C219.605850,8.261307 221.197495,8.662579 223.258575,9.232923 
	C219.615768,22.478291 216.015305,35.543766 212.429092,48.613152 
	C169.636444,204.564545 126.850677,360.517822 84.052467,516.467712 
	C66.782249,579.397583 49.485523,642.320190 32.208672,705.248291 
	C32.033195,705.887451 31.963667,706.555603 31.922340,707.605103 
	C30.285643,708.000000 28.571283,708.000000 26.428459,708.000000 
z"/>
<path fill="none" opacity="1.000000" stroke="none" 
	d="
M1890.750000,1.000015 
	C1890.836060,1.277470 1890.671997,1.554911 1890.274414,1.971348 
	C1890.030396,1.925429 1890.019653,1.740512 1890.004517,1.277798 
	C1890.000000,1.000000 1890.500000,1.000000 1890.750000,1.000015 
z"/>
<path fill="#030303" opacity="1.000000" stroke="none" 
	d="
M1537.999512,469.457520 
	C1529.000366,469.454895 1520.500366,469.385620 1512.002197,469.476440 
	C1507.397217,469.525635 1505.215942,467.417542 1505.327515,462.840576 
	C1505.359985,461.508820 1505.292725,460.174957 1505.292725,458.842041 
	C1505.291382,381.515961 1505.292114,304.189880 1505.293579,226.863800 
	C1505.293701,225.530746 1505.262695,224.195877 1505.319458,222.864990 
	C1505.488281,218.902985 1507.277344,216.717560 1511.547729,216.860168 
	C1515.875610,217.004715 1520.212402,216.876724 1524.545288,216.881714 
	C1552.375610,216.913727 1580.220337,216.457901 1608.027710,217.273682 
	C1616.740234,217.529282 1625.901855,219.992065 1633.890381,223.591919 
	C1648.498779,230.174881 1657.573975,242.637466 1659.373779,258.313568 
	C1661.166016,273.922272 1661.286011,289.919250 1660.188965,305.609619 
	C1659.031982,322.156860 1648.914673,333.183807 1633.469360,339.188263 
	C1632.708618,339.484009 1631.988159,339.883667 1630.989014,340.358612 
	C1635.366821,342.154694 1639.733765,343.417023 1643.562988,345.615631 
	C1655.509399,352.474792 1662.675781,363.294495 1663.521240,376.687286 
	C1664.535400,392.752075 1664.880859,409.122589 1662.950562,425.049805 
	C1659.831177,450.785431 1640.520386,467.902161 1614.476196,468.866516 
	C1589.178101,469.803223 1563.827271,469.318207 1537.999512,469.457520 
M1607.649048,353.579529 
	C1584.676636,353.400787 1561.704346,353.221161 1538.731934,353.044250 
	C1534.924194,353.014923 1534.650146,355.578674 1534.652588,358.478485 
	C1534.675537,385.288818 1534.723999,412.099365 1534.608276,438.909210 
	C1534.590698,442.999725 1536.171143,444.643158 1540.149536,444.612396 
	C1562.124512,444.442505 1584.116577,444.827606 1606.069824,444.067810 
	C1625.125244,443.408264 1634.555542,433.726807 1635.649902,414.719482 
	C1636.242310,404.431274 1636.246338,394.058167 1635.700317,383.766632 
	C1634.733521,365.541138 1626.552979,356.824341 1607.649048,353.579529 
M1622.171997,248.263153 
	C1616.316406,246.186829 1610.518311,242.533203 1604.594727,242.316788 
	C1582.986694,241.527283 1561.336426,241.925659 1539.702759,241.771088 
	C1536.074463,241.745178 1534.632324,243.202225 1534.640747,246.794144 
	C1534.700317,272.423950 1534.707031,298.054016 1534.634888,323.683746 
	C1534.625244,327.106873 1536.082886,328.565033 1539.372192,328.538086 
	C1561.500244,328.356781 1583.643188,328.617279 1605.750977,327.853577 
	C1619.671509,327.372772 1629.949829,318.769592 1631.461426,305.168488 
	C1632.936890,291.893066 1632.236328,278.304413 1631.593506,264.896271 
	C1631.290405,258.576141 1627.951172,252.881592 1622.171997,248.263153 
z"/>
<path fill="#040404" opacity="1.000000" stroke="none" 
	d="
M1295.983887,216.880402 
	C1313.044189,216.857239 1328.127319,220.878143 1340.104614,233.111710 
	C1349.916626,243.133698 1354.319946,255.607742 1354.789673,269.257355 
	C1355.322388,284.731171 1355.269531,300.251953 1354.747803,315.727905 
	C1354.197876,332.038910 1348.643188,346.542969 1335.144043,356.573303 
	C1329.253662,360.950104 1322.161377,363.709595 1315.186279,367.432404 
	C1318.402344,374.220825 1321.920654,381.700378 1325.483765,389.158539 
	C1336.580444,412.384735 1347.700928,435.599457 1358.797485,458.825623 
	C1363.362915,468.381470 1362.689087,469.437622 1352.128296,469.456604 
	C1348.129761,469.463806 1344.126587,469.341431 1340.133667,469.492340 
	C1333.655640,469.737183 1329.702759,466.750519 1327.025513,460.877777 
	C1313.731445,431.714478 1300.171509,402.672394 1286.849121,373.521759 
	C1285.363403,370.270813 1283.756714,368.876770 1279.914673,368.953857 
	C1265.259033,369.247925 1250.591797,369.218292 1235.933716,368.991333 
	C1231.110229,368.916626 1229.595459,370.642181 1229.622681,375.388031 
	C1229.784912,403.710449 1229.709595,432.034241 1229.698242,460.357574 
	C1229.694946,468.571259 1228.844727,469.402130 1220.489258,469.451721 
	C1215.824585,469.479401 1211.159546,469.423553 1206.494873,469.454102 
	C1202.349976,469.481232 1200.394897,467.376526 1200.349731,463.325989 
	C1200.338623,462.326508 1200.327026,461.326996 1200.327026,460.327484 
	C1200.324219,382.355011 1200.322632,304.382507 1200.321655,226.410019 
	C1200.321655,225.410385 1200.332886,224.410767 1200.334106,223.411133 
	C1200.339844,218.958099 1202.271118,216.734329 1207.020508,216.828934 
	C1216.180298,217.011398 1225.346313,216.879410 1234.509766,216.879227 
	C1254.835571,216.878830 1275.161499,216.879318 1295.983887,216.880402 
M1245.505737,242.515945 
	C1241.840942,242.519165 1238.175659,242.557159 1234.511353,242.515182 
	C1231.273682,242.478119 1229.662964,243.752258 1229.670288,247.252441 
	C1229.735352,278.070587 1229.732544,308.889008 1229.665039,339.707153 
	C1229.657715,343.060120 1230.982056,344.711243 1234.309448,344.680695 
	C1255.957153,344.481903 1277.621094,344.711090 1299.246704,343.908478 
	C1313.714600,343.371552 1324.000366,333.540192 1324.942627,318.878479 
	C1325.975708,302.801575 1326.073608,286.571747 1325.166992,270.488129 
	C1324.184326,253.051682 1313.819092,243.535156 1296.463745,242.961472 
	C1279.823853,242.411438 1263.158569,242.633286 1245.505737,242.515945 
z"/>
<path fill="#010101" opacity="1.000000" stroke="none" 
	d="
M593.005005,311.000000 
	C593.004639,361.327850 593.006409,411.155731 593.001587,460.983582 
	C593.000854,468.505127 592.146973,469.383667 584.774353,469.438354 
	C580.608398,469.469238 576.441833,469.462769 572.275879,469.433960 
	C564.692688,469.381531 563.889709,468.613861 563.886230,461.198120 
	C563.870850,428.535034 563.875427,395.871979 563.874695,363.208893 
	C563.874512,354.701019 563.877686,354.695099 555.321472,354.693329 
	C525.658081,354.687286 495.994690,354.678589 466.331299,354.687866 
	C459.572968,354.689972 459.271118,354.994781 459.269165,361.728912 
	C459.259735,394.391998 459.271240,427.055054 459.264404,459.718140 
	C459.262451,469.110962 458.942169,469.430176 449.324219,469.431458 
	C444.660767,469.432068 439.997437,469.312531 435.333832,469.281738 
	C431.762451,469.258179 430.280121,467.223267 430.107605,463.928802 
	C430.037964,462.598877 430.071106,461.263123 430.071075,459.930023 
	C430.070038,381.938568 430.069611,303.947144 430.071808,225.955704 
	C430.072052,217.649277 430.833923,216.896667 439.194763,216.884766 
	C443.527618,216.878601 447.860962,216.841293 452.193207,216.892654 
	C458.229553,216.964203 459.231445,217.886749 459.254761,223.895874 
	C459.312347,238.727325 459.266357,253.559158 459.266113,268.390839 
	C459.265869,286.388855 459.255280,304.386932 459.280182,322.384918 
	C459.288452,328.372894 459.874908,328.948151 465.857239,328.950653 
	C496.353882,328.963440 526.850525,328.964935 557.347168,328.951263 
	C563.357361,328.948578 563.866211,328.425049 563.868347,322.333191 
	C563.879883,290.003418 563.868958,257.673615 563.878967,225.343842 
	C563.881409,217.473145 564.481628,216.902527 572.495544,216.886505 
	C576.995056,216.877502 581.495178,216.837662 585.993958,216.895660 
	C591.740662,216.969757 592.983582,218.194870 592.990601,224.010986 
	C593.020996,249.341507 593.004456,274.672089 593.005005,300.002625 
	C593.005066,303.501740 593.005005,307.000885 593.005005,311.000000 
z"/>
<path fill="#030303" opacity="1.000000" stroke="none" 
	d="
M1040.445312,469.341553 
	C1020.991211,468.858643 1004.715393,462.805786 993.633362,446.426941 
	C986.348389,435.660034 984.401184,423.370667 984.377258,410.728119 
	C984.291992,365.562561 984.269592,320.396545 984.391602,275.231171 
	C984.432495,260.083557 987.468811,245.774170 998.109314,234.076431 
	C1008.488831,222.665573 1021.848511,217.535782 1036.810425,217.132553 
	C1056.461426,216.602936 1076.147705,216.597427 1095.800537,217.091141 
	C1125.730347,217.843018 1146.729248,239.123337 1147.902466,269.336761 
	C1148.219116,277.491882 1147.954956,285.668182 1148.067505,293.833221 
	C1148.128784,298.276855 1146.055420,300.187286 1141.671631,300.096558 
	C1136.174194,299.982788 1130.671143,299.993164 1125.173218,300.096924 
	C1120.729370,300.180817 1119.003662,298.110870 1118.859863,293.725342 
	C1118.538574,283.930634 1118.760376,273.995850 1117.125366,264.396729 
	C1114.969727,251.742142 1105.665649,243.630249 1092.880249,243.166504 
	C1075.081665,242.520935 1057.219360,242.442169 1039.427490,243.173309 
	C1024.671265,243.779724 1014.536804,255.240982 1014.084167,270.848267 
	C1013.610840,287.167938 1013.721008,303.507172 1013.731262,319.837738 
	C1013.751099,351.335022 1013.645325,382.835297 1014.056702,414.328278 
	C1014.283997,431.732086 1023.950439,442.288666 1041.329102,443.191620 
	C1058.264160,444.071503 1075.312378,443.886597 1092.259521,443.084534 
	C1106.989258,442.387390 1116.094116,433.378052 1117.940552,418.594269 
	C1118.988403,410.205078 1118.667114,401.642181 1118.909058,393.156036 
	C1119.070190,387.504272 1120.332520,386.164948 1126.074829,386.098846 
	C1131.407227,386.037445 1136.741455,386.057312 1142.074097,386.113464 
	C1145.230591,386.146667 1148.047729,387.316223 1147.902588,390.849915 
	C1147.350708,404.285950 1148.095825,418.046387 1145.373413,431.061707 
	C1140.726562,453.278259 1121.605957,467.941895 1097.891357,468.922455 
	C1078.923462,469.706757 1059.904663,469.258606 1040.445312,469.341553 
z"/>
<path fill="#030303" opacity="1.000000" stroke="none" 
	d="
M758.000122,216.879791 
	C766.499634,216.881760 774.500916,216.986588 782.497986,216.846695 
	C787.215332,216.764191 789.165955,218.915848 789.032715,223.504578 
	C788.907043,227.834061 788.949890,232.170624 789.011902,236.502731 
	C789.068237,240.442581 787.135742,242.349274 783.275513,242.443878 
	C781.776733,242.480621 780.277344,242.514160 778.778259,242.514389 
	C749.613342,242.518692 720.448486,242.514374 691.283569,242.520493 
	C683.765686,242.522079 683.629883,242.666183 683.629883,249.933228 
	C683.629761,273.598450 683.628357,297.263702 683.632507,320.928925 
	C683.633728,327.991760 683.713501,328.071930 690.963257,328.073120 
	C716.795044,328.077362 742.626770,328.065582 768.458557,328.079590 
	C775.711914,328.083527 776.889893,329.271729 776.923950,336.433868 
	C776.939758,339.766937 776.966431,343.100677 776.920105,346.433136 
	C776.835510,352.520569 775.441956,353.886780 769.056946,353.897308 
	C749.891479,353.928955 730.725952,353.906830 711.560425,353.905823 
	C704.060913,353.905426 696.555969,354.075073 689.063904,353.838837 
	C684.853210,353.706055 683.547546,355.436340 683.563538,359.439789 
	C683.668091,385.604401 683.716309,411.770111 683.553894,437.934082 
	C683.524353,442.682007 685.462585,443.921143 689.809570,443.905853 
	C719.640747,443.800812 749.472473,443.851074 779.304016,443.852814 
	C788.728577,443.853363 789.006775,444.140350 789.007751,453.787872 
	C789.008057,456.621033 789.037598,459.454529 789.003235,462.287292 
	C788.932556,468.115723 787.836975,469.372864 781.969788,469.418945 
	C768.971375,469.521088 755.971619,469.450958 742.972412,469.451508 
	C716.473999,469.452698 689.975647,469.474365 663.477234,469.443604 
	C655.112000,469.433899 654.258606,468.547180 654.258118,460.355408 
	C654.252991,382.193481 654.252747,304.031525 654.258972,225.869583 
	C654.259583,217.755859 655.181519,216.878067 663.506226,216.877777 
	C694.837524,216.876663 726.168762,216.878845 758.000122,216.879791 
z"/>
<path fill="#010101" opacity="1.000000" stroke="none" 
	d="
M330.289124,346.000183 
	C330.290710,384.156433 330.292206,421.812622 330.294037,459.468842 
	C330.294495,469.163147 330.022095,469.444122 320.092346,469.433655 
	C315.595398,469.428894 311.098511,469.325317 306.601562,469.321198 
	C302.803131,469.317719 301.223175,467.212067 301.118774,463.678375 
	C301.064667,461.846985 301.088013,460.013062 301.088013,458.180298 
	C301.087830,388.699585 301.089661,319.218903 301.088928,249.738190 
	C301.088867,242.682083 300.938629,242.520218 293.802582,242.513611 
	C278.306885,242.499283 262.811188,242.514374 247.315506,242.502472 
	C238.847900,242.495972 238.019913,241.637726 238.020721,232.997498 
	C238.021057,229.498611 237.979507,225.998520 238.056381,222.501175 
	C238.135162,218.917267 239.945068,216.955872 243.636551,216.931824 
	C244.802612,216.924225 245.968567,216.886703 247.134567,216.886658 
	C292.955170,216.884766 338.775787,216.882629 384.596405,216.888947 
	C392.689240,216.890060 393.425842,217.637787 393.468048,225.724411 
	C393.480225,228.057022 393.472809,230.389755 393.469757,232.722443 
	C393.457886,241.792557 392.800995,242.487930 383.926239,242.500580 
	C369.596924,242.521011 355.267548,242.508240 340.938202,242.509354 
	C339.771851,242.509445 338.605438,242.501099 337.439148,242.509308 
	C330.730438,242.556564 330.301300,242.945755 330.298431,249.527023 
	C330.284454,281.518066 330.290283,313.509125 330.289124,346.000183 
z"/>
<path fill="#000000" opacity="1.000000" stroke="none" 
	d="
M1442.046875,242.000107 
	C1442.047607,315.138153 1442.048950,387.776276 1442.048462,460.414368 
	C1442.048462,468.796875 1441.423950,469.426117 1432.896118,469.425934 
	C1428.065918,469.425812 1423.235840,469.349640 1418.405640,469.314697 
	C1414.718018,469.288025 1412.877563,467.472107 1412.945190,463.751495 
	C1412.972412,462.252747 1412.930298,460.752869 1412.930298,459.253510 
	C1412.928467,381.617371 1412.927002,303.981232 1412.927124,226.345108 
	C1412.927124,217.172974 1413.213867,216.893036 1422.560181,216.889664 
	C1427.058350,216.888046 1431.557617,216.955994 1436.054565,216.884750 
	C1440.277466,216.817841 1442.091309,218.868423 1442.041016,223.008133 
	C1441.966187,229.171204 1442.037598,235.336060 1442.046875,242.000107 
z"/>
<path fill="#050505" opacity="1.000000" stroke="none" 
	d="
M875.000000,509.919556 
	C856.345032,509.919556 838.190063,509.928986 820.035095,509.914948 
	C812.614319,509.909210 811.625549,508.928436 811.581299,501.635162 
	C811.570190,499.804962 811.084595,497.687775 811.829773,496.214844 
	C812.805054,494.287079 814.753479,492.834564 816.366516,491.263123 
	C816.638977,490.997711 817.331177,491.133728 817.829468,491.133942 
	C862.466736,491.151947 907.104065,491.179504 951.741333,491.190063 
	C956.122131,491.191101 957.924194,493.339569 958.038086,497.679016 
	C958.346680,509.437958 957.975891,509.923828 946.454285,509.922302 
	C922.802856,509.919128 899.151428,509.920227 875.000000,509.919556 
z"/>
<path fill="none" opacity="1.000000" stroke="none" 
	d="
M1608.084961,353.634125 
	C1626.552979,356.824341 1634.733521,365.541138 1635.700317,383.766632 
	C1636.246338,394.058167 1636.242310,404.431274 1635.649902,414.719482 
	C1634.555542,433.726807 1625.125244,443.408264 1606.069824,444.067810 
	C1584.116577,444.827606 1562.124512,444.442505 1540.149536,444.612396 
	C1536.171143,444.643158 1534.590698,442.999725 1534.608276,438.909210 
	C1534.723999,412.099365 1534.675537,385.288818 1534.652588,358.478485 
	C1534.650146,355.578674 1534.924194,353.014923 1538.731934,353.044250 
	C1561.704346,353.221161 1584.676636,353.400787 1608.084961,353.634125 
z"/>
<path fill="none" opacity="1.000000" stroke="none" 
	d="
M1622.448242,248.499237 
	C1627.951172,252.881592 1631.290405,258.576141 1631.593506,264.896271 
	C1632.236328,278.304413 1632.936890,291.893066 1631.461426,305.168488 
	C1629.949829,318.769592 1619.671509,327.372772 1605.750977,327.853577 
	C1583.643188,328.617279 1561.500244,328.356781 1539.372192,328.538086 
	C1536.082886,328.565033 1534.625244,327.106873 1534.634888,323.683746 
	C1534.707031,298.054016 1534.700317,272.423950 1534.640747,246.794144 
	C1534.632324,243.202225 1536.074463,241.745178 1539.702759,241.771088 
	C1561.336426,241.925659 1582.986694,241.527283 1604.594727,242.316788 
	C1610.518311,242.533203 1616.316406,246.186829 1622.448242,248.499237 
z"/>
<path fill="none" opacity="1.000000" stroke="none" 
	d="
M1246.005127,242.515930 
	C1263.158569,242.633286 1279.823853,242.411438 1296.463745,242.961472 
	C1313.819092,243.535156 1324.184326,253.051682 1325.166992,270.488129 
	C1326.073608,286.571747 1325.975708,302.801575 1324.942627,318.878479 
	C1324.000366,333.540192 1313.714600,343.371552 1299.246704,343.908478 
	C1277.621094,344.711090 1255.957153,344.481903 1234.309448,344.680695 
	C1230.982056,344.711243 1229.657715,343.060120 1229.665039,339.707153 
	C1229.732544,308.889008 1229.735352,278.070587 1229.670288,247.252441 
	C1229.662964,243.752258 1231.273682,242.478119 1234.511353,242.515182 
	C1238.175659,242.557159 1241.840942,242.519165 1246.005127,242.515930 
z"/>
</svg>